# xmcd CD database file
#
# Track frame offsets:
#	150
#	26120
#	49160
#	73045
#	108202
#	131235
#	145942
#	171307
#	199062
#	229442
#	245860
#	292557
#
# Disc length: 4312 seconds
#
# Revision: 3
# Processed by: cddbd v1.5.2PL0 Copyright (c) Steve Scherf et al.
# Submitted via: CDex 1.51
#
DISCID=b910d60c
DTITLE=Tommy Castro - Live At The Fillmore
DYEAR=2000
DGENRE=Blues
TTITLE0=Right As Rain (Live)
TTITLE1=Like An Angel (Live)
TTITLE2=Nasty Habits (Live)
TTITLE3=My Time After Awhile (Live)
TTITLE4=Lucky In Love (Live)
TTITLE5=I Got To Change (Live)
TTITLE6=Can't You See Waht You're Doing To Me (Live)
TTITLE7=Just A Man (Live)
TTITLE8=Can't Keep A Good Man Down (Live)
TTITLE9=The Girl Can't Help It (Live)
TTITLE10=Sex Machine (Live)
TTITLE11=DATA
EXTD=YEAR: 2000
EXTT0=
EXTT1=
EXTT2=
EXTT3=
EXTT4=
EXTT5=
EXTT6=
EXTT7=
EXTT8=
EXTT9=
EXTT10=
EXTT11=
PLAYORDER=
